<svg fill="#000000" xmlns="http://www.w3.org/2000/svg"  viewBox="0 0 64 64" width="128px" height="128px"><path d="M 35.933594 4.472656 C 34.789063 4.484375 33.769531 5.132813 33.269531 6.160156 L 32.375 8 L 7 8 C 5.347656 8 4 9.347656 4 11 L 4 13 C 4 14.304688 4.835938 15.417969 6 15.828125 L 6 24.882813 C 3.503906 27.953125 2 31.835938 2 36.0625 C 2 45.953125 10.183594 54 20.246094 54 C 24.394531 54 27.984375 52.851563 30.808594 50.816406 L 24.128906 62.503906 C 23.855469 62.984375 24.023438 63.59375 24.503906 63.867188 C 24.660156 63.957031 24.828125 64 25 64 C 25.347656 64 25.683594 63.820313 25.867188 63.496094 L 33.578125 50 L 34 50 L 34 57 C 34 57.550781 34.445313 58 35 58 C 35.554688 58 36 57.550781 36 57 L 36 50 L 36.421875 50 L 44.132813 63.496094 C 44.316406 63.820313 44.652344 64 45 64 C 45.171875 64 45.339844 63.957031 45.496094 63.867188 C 45.976563 63.59375 46.140625 62.984375 45.867188 62.503906 L 38.722656 50 L 59 50 C 60.652344 50 62 48.652344 62 47 L 62 15.828125 C 63.164063 15.414063 64 14.304688 64 13 L 64 11 C 64 9.347656 62.652344 8 61 8 L 39.609375 8 L 38.636719 6.101563 C 38.117188 5.09375 37.097656 4.472656 35.96875 4.472656 Z M 35.953125 6.472656 L 35.96875 6.472656 C 36.351563 6.472656 36.679688 6.675781 36.855469 7.015625 L 37.359375 8 L 34.597656 8 L 35.066406 7.035156 C 35.234375 6.6875 35.566406 6.476563 35.953125 6.472656 Z M 7 10 L 61 10 C 61.550781 10 62 10.449219 62 11 L 62 13 C 62 13.550781 61.550781 14 61 14 L 56 14 C 55.445313 14 55 14.449219 55 15 C 55 15.550781 55.445313 16 56 16 L 60 16 L 60 47 C 60 47.550781 59.550781 48 59 48 L 33.804688 48 C 34.359375 47.304688 34.84375 46.546875 35.28125 45.75 C 35.464844 45.9375 35.71875 46.058594 36 46.058594 C 36.554688 46.058594 37 45.609375 37 45.058594 L 37 43.058594 C 37 42.777344 36.882813 42.523438 36.699219 42.34375 C 37.21875 40.566406 37.503906 38.632813 37.503906 36.558594 L 37.503906 35 C 37.503906 33.898438 36.609375 33 35.511719 33 L 21.996094 33 C 20.894531 33 20 33.898438 20 35 L 20 39 C 20 40.101563 20.898438 41 22 41 L 28.015625 41 C 26.765625 43.910156 24.105469 45.4375 20.246094 45.4375 C 14.972656 45.4375 10.683594 41.230469 10.683594 36.0625 C 10.683594 30.890625 14.972656 26.6875 20.246094 26.6875 C 22.300781 26.6875 24.257813 27.3125 25.90625 28.503906 C 26.726563 29.09375 27.863281 28.960938 28.546875 28.1875 L 31.609375 24.730469 C 31.976563 24.3125 32.15625 23.757813 32.097656 23.203125 C 32.042969 22.644531 31.746094 22.125 31.292969 21.785156 C 28.136719 19.425781 24.214844 18.125 20.246094 18.125 C 15.53125 18.125 11.238281 19.90625 8 22.804688 L 8 16 L 44 16 C 44.550781 16 45 15.550781 45 15 C 45 14.449219 44.550781 14 44 14 L 7 14 C 6.449219 14 6 13.550781 6 13 L 6 11 C 6 10.449219 6.449219 10 7 10 Z M 48 14 C 47.445313 14 47 14.449219 47 15 C 47 15.550781 47.445313 16 48 16 L 52 16 C 52.554688 16 53 15.550781 53 15 C 53 14.449219 52.554688 14 52 14 Z M 20.246094 20.125 C 23.785156 20.125 27.28125 21.28125 30.113281 23.402344 L 27.078125 26.882813 C 25.085938 25.445313 22.722656 24.683594 20.246094 24.683594 C 16.523438 24.683594 13.21875 26.425781 11.105469 29.121094 L 7.398438 26.34375 C 10.371094 22.570313 15.019531 20.125 20.246094 20.125 Z M 6.261719 27.988281 L 10.003906 30.796875 C 9.164063 32.371094 8.679688 34.160156 8.679688 36.0625 C 8.679688 37.207031 8.859375 38.3125 9.179688 39.359375 L 5.289063 42.28125 C 4.460938 40.367188 4 38.265625 4 36.0625 C 4 33.117188 4.832031 30.359375 6.261719 27.988281 Z M 21.996094 35 L 35.511719 35 L 35.503906 36.558594 C 35.503906 40.886719 34.140625 44.535156 31.769531 47.207031 L 28.316406 44.246094 C 29.261719 43.167969 29.960938 41.835938 30.375 40.253906 C 30.457031 39.957031 30.390625 39.636719 30.203125 39.390625 C 30.011719 39.144531 29.722656 39 29.410156 39 L 22 39 Z M 9.976563 41.265625 C 11.898438 44.925781 15.777344 47.4375 20.25 47.4375 C 22.890625 47.4375 25.109375 46.804688 26.824219 45.597656 L 30.34375 48.613281 C 27.746094 50.777344 24.292969 52 20.246094 52 C 14.265625 52 9.046875 48.804688 6.226563 44.074219 Z M 41 42 C 40.445313 42 40 42.449219 40 43 L 40 45 C 40 45.550781 40.445313 46 41 46 C 41.554688 46 42 45.550781 42 45 L 42 43 C 42 42.449219 41.554688 42 41 42 Z M 46 42 C 45.445313 42 45 42.449219 45 43 L 45 45 C 45 45.550781 45.445313 46 46 46 C 46.554688 46 47 45.550781 47 45 L 47 43 C 47 42.449219 46.554688 42 46 42 Z M 51 42 C 50.445313 42 50 42.449219 50 43 L 50 45 C 50 45.550781 50.445313 46 51 46 C 51.554688 46 52 45.550781 52 45 L 52 43 C 52 42.449219 51.554688 42 51 42 Z M 56 42 C 55.445313 42 55 42.449219 55 43 L 55 45 C 55 45.550781 55.445313 46 56 46 C 56.554688 46 57 45.550781 57 45 L 57 43 C 57 42.449219 56.554688 42 56 42 Z"/></svg>