<svg fill="#000000" xmlns="http://www.w3.org/2000/svg"  viewBox="0 0 64 64" width="128px" height="128px"><path d="M 31 2 C 15.011719 2 2 15.011719 2 31 C 2 46.988281 15.011719 60 31 60 C 46.988281 60 60 46.988281 60 31 C 60 15.011719 46.988281 2 31 2 Z M 31 4 C 41.972656 4 51.429688 10.582031 55.648438 20 L 31 20 C 25.261719 20 20.542969 24.417969 20.046875 30.03125 L 10.488281 13.472656 C 15.445313 7.683594 22.796875 4 31 4 Z M 32.167969 7.746094 C 29.96875 7.675781 27.761719 7.921875 25.609375 8.484375 C 25.074219 8.625 24.753906 9.171875 24.894531 9.707031 C 25.035156 10.242188 25.582031 10.5625 26.113281 10.421875 C 30.046875 9.390625 34.175781 9.523438 38.050781 10.8125 C 39.050781 11.140625 40.027344 11.550781 40.957031 12.023438 C 41.105469 12.097656 41.257813 12.128906 41.410156 12.128906 C 41.773438 12.128906 42.125 11.929688 42.300781 11.582031 C 42.550781 11.089844 42.355469 10.488281 41.863281 10.238281 C 40.84375 9.71875 39.773438 9.273438 38.683594 8.914063 C 36.558594 8.207031 34.367188 7.816406 32.167969 7.746094 Z M 45.128906 12.609375 C 44.875 12.636719 44.632813 12.761719 44.457031 12.972656 C 44.113281 13.402344 44.179688 14.035156 44.609375 14.378906 C 45.203125 14.859375 45.777344 15.378906 46.3125 15.917969 C 46.507813 16.113281 46.765625 16.210938 47.019531 16.210938 C 47.277344 16.210938 47.53125 16.113281 47.726563 15.921875 C 48.117188 15.53125 48.121094 14.898438 47.730469 14.503906 C 47.140625 13.914063 46.515625 13.347656 45.863281 12.824219 C 45.648438 12.648438 45.386719 12.582031 45.128906 12.609375 Z M 9.15625 15.160156 L 21.472656 36.5 C 21.472656 36.5 21.484375 36.503906 21.492188 36.507813 C 23.398438 39.785156 26.941406 42 31 42 C 32.65625 42 34.222656 41.621094 35.628906 40.964844 C 35.632813 40.964844 35.640625 40.96875 35.640625 40.96875 L 26.066406 57.539063 C 13.527344 55.214844 4 44.203125 4 31 C 4 25.085938 5.917969 19.613281 9.15625 15.160156 Z M 31 22 C 35.964844 22 40 26.035156 40 31 C 40 35.964844 35.964844 40 31 40 C 26.035156 40 22 35.964844 22 31 C 22 26.035156 26.035156 22 31 22 Z M 37.316406 22 L 56.453125 22 C 57.449219 24.816406 58 27.84375 58 31 C 58 45.886719 45.886719 58 31 58 C 30.054688 58 29.121094 57.949219 28.199219 57.855469 L 40.527344 36.5 C 40.527344 36.5 40.523438 36.488281 40.523438 36.480469 C 41.457031 34.867188 42 32.996094 42 31 C 42 27.285156 40.144531 24.003906 37.320313 22.011719 C 37.320313 22.007813 37.316406 22 37.316406 22 Z M 10.304688 28.945313 C 9.761719 28.921875 9.277344 29.335938 9.246094 29.886719 C 9.214844 30.4375 9.632813 30.910156 10.1875 30.941406 L 12.183594 31.058594 C 12.203125 31.058594 12.222656 31.0625 12.242188 31.0625 C 12.765625 31.0625 13.210938 30.648438 13.238281 30.121094 C 13.273438 29.566406 12.851563 29.09375 12.300781 29.0625 Z M 12.800781 34.15625 C 12.675781 34.128906 12.539063 34.128906 12.40625 34.15625 L 10.449219 34.5625 C 9.90625 34.671875 9.558594 35.203125 9.671875 35.742188 C 9.769531 36.214844 10.183594 36.542969 10.648438 36.542969 C 10.714844 36.542969 10.78125 36.535156 10.847656 36.519531 L 12.808594 36.117188 C 13.347656 36.003906 13.699219 35.476563 13.589844 34.9375 C 13.503906 34.527344 13.183594 34.234375 12.800781 34.15625 Z M 14.210938 38.949219 C 14.082031 38.957031 13.949219 38.992188 13.828125 39.050781 L 12.039063 39.949219 C 11.546875 40.195313 11.347656 40.796875 11.59375 41.292969 C 11.769531 41.640625 12.121094 41.84375 12.488281 41.84375 C 12.636719 41.84375 12.792969 41.808594 12.9375 41.734375 L 14.722656 40.84375 C 15.21875 40.59375 15.417969 39.992188 15.171875 39.5 C 14.984375 39.128906 14.601563 38.925781 14.210938 38.949219 Z M 17.1875 43.160156 C 16.933594 43.144531 16.671875 43.226563 16.46875 43.410156 L 14.972656 44.742188 C 14.558594 45.109375 14.523438 45.742188 14.890625 46.152344 C 15.085938 46.375 15.363281 46.488281 15.636719 46.488281 C 15.871094 46.488281 16.109375 46.40625 16.300781 46.234375 L 17.796875 44.90625 C 18.207031 44.539063 18.246094 43.90625 17.878906 43.496094 C 17.695313 43.289063 17.445313 43.175781 17.1875 43.160156 Z M 21.160156 46.507813 C 20.777344 46.4375 20.371094 46.597656 20.144531 46.941406 L 19.046875 48.609375 C 18.742188 49.074219 18.867188 49.691406 19.328125 49.996094 C 19.5 50.105469 19.691406 50.160156 19.878906 50.160156 C 20.203125 50.160156 20.523438 50.003906 20.714844 49.714844 L 21.8125 48.042969 C 22.117188 47.582031 21.992188 46.960938 21.53125 46.65625 C 21.414063 46.582031 21.289063 46.53125 21.160156 46.507813 Z"/></svg>